<?xml version="1.0" encoding="UTF-8" standalone="no"?>
<!-- Created with Inkscape (http://www.inkscape.org/) -->

<svg
   width="100mm"
   height="100mm"
   viewBox="0 0 100.00001 100"
   version="1.1"
   id="svg5"
   sodipodi:docname="favicon.svg"
   inkscape:version="1.1 (c68e22c387, 2021-05-23)"
   xmlns:inkscape="http://www.inkscape.org/namespaces/inkscape"
   xmlns:sodipodi="http://sodipodi.sourceforge.net/DTD/sodipodi-0.dtd"
   xmlns="http://www.w3.org/2000/svg"
   xmlns:svg="http://www.w3.org/2000/svg">
  <sodipodi:namedview
     id="namedview18"
     pagecolor="#505050"
     bordercolor="#eeeeee"
     borderopacity="1"
     inkscape:pageshadow="0"
     inkscape:pageopacity="0"
     inkscape:pagecheckerboard="0"
     inkscape:document-units="mm"
     showgrid="false"
     width="200mm"
     inkscape:zoom="1.137246"
     inkscape:cx="386.45992"
     inkscape:cy="240.49326"
     inkscape:window-width="2560"
     inkscape:window-height="1377"
     inkscape:window-x="-8"
     inkscape:window-y="-8"
     inkscape:window-maximized="1"
     inkscape:current-layer="layer1" />
  <defs
     id="defs2">
    <inkscape:path-effect
       effect="perspective-envelope"
       up_left_point="-19.51,72.56"
       up_right_point="30,83.66"
       down_left_point="-28.31,128.64"
       down_right_point="27.15,132.64"
       id="path-effect60607"
       is_visible="true"
       lpeversion="1"
       deform_type="perspective"
       horizontal_mirror="false"
       vertical_mirror="false"
       overflow_perspective="false" />
    <inkscape:path-effect
       effect="perspective-envelope"
       up_left_point="-118.15,57.13"
       up_right_point="-84.5,9.43"
       down_left_point="-117.65,106.1"
       down_right_point="-85.9,108.5"
       id="path-effect37892"
       is_visible="true"
       lpeversion="1"
       deform_type="envelope_deformation"
       horizontal_mirror="false"
       vertical_mirror="false"
       overflow_perspective="false" />
    <linearGradient
       id="linearGradient64803">
      <stop
         style="stop-color:#00ff00;stop-opacity:1;"
         offset="0"
         id="stop64801" />
    </linearGradient>
  </defs>
  <g
     id="layer1"
     transform="translate(78.425028,-68.345667)">
    <path
       style="fill:#6700be;fill-opacity:1;stroke-width:0.462636"
       d="m -77.940544,140.82691 v -27.05237 l 24.26431,-22.403026 c 13.345362,-12.321672 24.488916,-22.63382 24.763508,-22.915861 0.398466,-0.40928 0.49927,8.405175 0.49927,43.658437 v 44.17127 l -23.665131,5.52296 c -13.015853,3.03762 -24.159459,5.64625 -24.763572,5.79696 l -1.098385,0.27398 z"
       id="path221" />
    <path
       style="fill:#8000e5;fill-opacity:1;stroke-width:0.655945"
       d="m -5.0509131,159.06411 c -12.4902339,-1.59006 -22.8160409,-2.96051 -22.9462119,-3.04544 -0.130081,-0.0849 -0.143214,-19.75578 -0.02886,-43.713 l 0.207678,-43.55856 24.5339687,12.081336 24.5340523,12.081336 0.03171,34.570948 0.03145,34.57097 -1.827186,-0.0482 c -1.004957,-0.0264 -12.046555,-1.34924 -24.5367978,-2.93931 z"
       id="path1952" />
    <text
       xml:space="preserve"
       style="font-style:normal;font-weight:normal;font-size:10.5833px;line-height:1.25;font-family:sans-serif;fill:#000000;fill-opacity:1;stroke:none;stroke-width:0.264583"
       x="46.60825"
       y="68.381447"
       id="text5646"><tspan
         id="tspan5644"
         style="stroke-width:0.264583"
         x="46.60825"
         y="68.381447" /></text>
    <path
       style="fill:#8a00ff;fill-opacity:1;stroke-width:0.232653"
       d="m -52.119342,162.09475 23.694045,-5.56598 16.903848,1.96131 c 9.297117,1.07872 19.4581038,2.27891 22.57997,2.66708 3.121866,0.38818 5.992217,0.70578 6.378562,0.70578 0.386341,0 0.652832,0.0496 0.592201,0.11024 -0.06064,0.0606 -13.9238276,1.30795 -30.807094,2.77182 l -30.696852,2.66157 -16.169361,0.12709 -16.169361,0.12708 z"
       id="path2140" />
    <text
       xml:space="preserve"
       style="font-style:normal;font-variant:normal;font-weight:normal;font-stretch:normal;font-size:10.5833px;line-height:1.25;font-family:Algerian;-inkscape-font-specification:Algerian;fill:#000000;fill-opacity:1;stroke:none;stroke-width:0.264583"
       x="-66.792397"
       y="132.5578"
       id="text8257"><tspan
         sodipodi:role="line"
         id="tspan8255"
         style="font-style:normal;font-variant:normal;font-weight:normal;font-stretch:normal;font-family:Algerian;-inkscape-font-specification:Algerian;stroke-width:0.264583"
         x="-66.792397"
         y="132.5578" /></text>
    <g
       aria-label="J"
       transform="matrix(1.4108907,-0.00664777,0.00550773,0.90880722,88.686142,62.518373)"
       id="text22769"
       style="font-size:80.2222px;line-height:1.25;font-family:'Lucida Console';-inkscape-font-specification:'Lucida Console';fill:#00ff00;stroke-width:2.00555"
       inkscape:path-effect="#path-effect37892">
      <path
         d="m -117.66826,104.31114 -0.0635,-6.223735 2.88837,0.374017 c 3.98757,0.746199 7.13858,1.108229 9.46113,0.872594 4.09348,-0.415306 6.965066,-2.171814 8.620135,-5.411094 1.69142,-3.435196 2.581634,-9.243197 2.665175,-17.279907 l 0.465348,-44.766647 -20.225578,25.440512 -0.0292,-6.230625 L -84.5,9.43 -85.277778,64.46889 c -0.138508,9.801445 -0.578529,17.206939 -1.317192,22.140814 -0.734837,4.832984 -2.068902,9.089908 -3.998918,12.684368 -3.365498,5.813948 -8.095506,8.239168 -14.209042,7.777048 -3.3163,-0.25068 -7.60092,-1.27152 -12.86533,-2.75998 z"
         id="path37853"
         inkscape:original-d="m -115.55307,95.123423 v -6.541557 l 2.58529,0.861762 q 5.36643,1.762695 8.50011,1.762695 5.523106,0 7.716681,-2.859483 2.232747,-2.859482 2.232747,-10.106116 V 51.33025 h -17.391918 v -5.797308 h 25.108604 v 28.594827 q 0,7.638344 -0.900933,11.359589 -0.900933,3.721244 -3.447047,6.541556 -4.465494,4.974716 -12.769744,4.974716 -4.50467,0 -11.63379,-1.880207 z"
         style="fill:#00ff00" />
    </g>
    <text
       xml:space="preserve"
       style="font-style:normal;font-weight:normal;font-size:10.5833px;line-height:1.25;font-family:sans-serif;fill:#000000;fill-opacity:1;stroke:none;stroke-width:0.264583"
       x="-18.633289"
       y="121.85578"
       id="text40496"><tspan
         sodipodi:role="line"
         id="tspan40494"
         style="stroke-width:0.264583"></tspan></text>
    <g
       aria-label="A"
       transform="matrix(0.82083845,0,0,1.4041957,-4.1171861,-25.408709)"
       id="text46022"
       style="font-size:78.1903px;line-height:1.25;font-family:'Lucida Console';-inkscape-font-specification:'Lucida Console';fill:#00ff00;stroke-width:1.95476"
       inkscape:path-effect="#path-effect60607">
      <path
         d="M -28.31,128.64 2.9446516,77.594268 10.972337,79.394053 27.15,132.64 l -8.405622,-0.60625 -3.951048,-13.97171 -26.103142,-2.93766 -8.089295,14.15831 z m 20.6119045,-19.63635 20.5611575,2.6856 -7.448938,-25.803339 z"
         id="path60586"
         inkscape:original-d="M -24.608792,127.14169 -5.2902903,78.158219 h 7.521235 L 21.549447,127.14169 H 13.570065 L 8.9504236,114.88628 H -13.422387 l -4.695999,12.25541 z m 13.438958,-17.90588 H 6.697871 L -2.2741605,85.832169 Z" />
    </g>
  </g>
</svg>
